<svg width="86" height="86" viewBox="0 0 86 86" fill="none" xmlns="http://www.w3.org/2000/svg">
<path d="M83.2958 27.9836C83.8333 29.4449 83.3798 31.0742 82.2208 32.1156L74.9478 38.7336C75.1325 40.1277 75.2333 41.5555 75.2333 43C75.2333 44.4445 75.1325 45.8723 74.9478 47.2664L82.2208 53.8844C83.3798 54.9258 83.8333 56.5551 83.2958 58.0164C82.5567 60.0152 81.6665 61.9301 80.6419 63.7777L79.8524 65.1383C78.7438 66.9859 77.5009 68.7328 76.1403 70.3789C75.1493 71.5883 73.5032 71.9914 72.0251 71.5211L62.6692 68.548C60.4185 70.2781 57.9325 71.7227 55.2786 72.8145L53.179 82.4055C52.8431 83.934 51.6673 85.1434 50.122 85.3953C47.804 85.7816 45.4188 85.9832 42.9833 85.9832C40.5477 85.9832 38.1626 85.7816 35.8446 85.3953C34.2993 85.1434 33.1235 83.934 32.7876 82.4055L30.688 72.8145C28.0341 71.7227 25.5481 70.2781 23.2974 68.548L13.9583 71.5379C12.4802 72.0082 10.8341 71.5883 9.84306 70.3957C8.48251 68.7496 7.23955 67.0027 6.13095 65.1551L5.3415 63.7945C4.31689 61.9469 3.42665 60.032 2.68759 58.0332C2.15009 56.5719 2.60361 54.9426 3.76259 53.9012L11.0356 47.2832C10.8509 45.8723 10.7501 44.4445 10.7501 43C10.7501 41.5555 10.8509 40.1277 11.0356 38.7336L3.76259 32.1156C2.60361 31.0742 2.15009 29.4449 2.68759 27.9836C3.42665 25.9848 4.31689 24.0699 5.3415 22.2223L6.13095 20.8617C7.23955 19.0141 8.48251 17.2672 9.84306 15.6211C10.8341 14.4117 12.4802 14.0086 13.9583 14.4789L23.3142 17.452C25.5649 15.7219 28.0509 14.2773 30.7048 13.1855L32.8044 3.59453C33.1403 2.06602 34.3161 0.856641 35.8614 0.604688C38.1794 0.201562 40.5645 0 43.0001 0C45.4356 0 47.8208 0.201563 50.1388 0.587891C51.6841 0.839844 52.8599 2.04922 53.1958 3.57773L55.2954 13.1687C57.9493 14.2605 60.4353 15.7051 62.686 17.4352L72.0419 14.4621C73.52 13.9918 75.1661 14.4117 76.1571 15.6043C77.5177 17.2504 78.7606 18.9973 79.8692 20.8449L80.6587 22.2055C81.6833 24.0531 82.5735 25.968 83.3126 27.9668L83.2958 27.9836ZM43.0001 56.4375C46.5639 56.4375 49.9818 55.0218 52.5018 52.5017C55.0219 49.9817 56.4376 46.5638 56.4376 43C56.4376 39.4362 55.0219 36.0183 52.5018 33.4983C49.9818 30.9782 46.5639 29.5625 43.0001 29.5625C39.4362 29.5625 36.0184 30.9782 33.4983 33.4983C30.9783 36.0183 29.5626 39.4362 29.5626 43C29.5626 46.5638 30.9783 49.9817 33.4983 52.5017C36.0184 55.0218 39.4362 56.4375 43.0001 56.4375Z" fill="white"/>
</svg>
