<svg width="86" height="76" viewBox="0 0 86 76" fill="none" xmlns="http://www.w3.org/2000/svg">
<path d="M85.9703 37.9258C85.9703 40.5977 83.7308 42.6906 81.1926 42.6906H76.4148L76.5193 66.4703C76.5193 66.8711 76.4894 67.2719 76.4446 67.6727V70.0773C76.4446 73.3578 73.7721 76.0148 70.4724 76.0148H68.0835C67.9193 76.0148 67.7551 76.0148 67.5908 76C67.3818 76.0148 67.1728 76.0148 66.9637 76.0148L62.1113 76H58.528C55.2283 76 52.5558 73.343 52.5558 70.0625V66.5V57C52.5558 54.3727 50.4207 52.25 47.778 52.25H38.2224C35.5797 52.25 33.4446 54.3727 33.4446 57V66.5V70.0625C33.4446 73.343 30.7721 76 27.4724 76H23.8891H19.1262C18.9023 76 18.6783 75.9852 18.4544 75.9703C18.2752 75.9852 18.096 76 17.9169 76H15.528C12.2283 76 9.55576 73.343 9.55576 70.0625V53.4375C9.55576 53.3039 9.55576 53.1555 9.57069 53.0219V42.6758H4.79291C2.10541 42.6758 0.0151367 40.5977 0.0151367 37.9109C0.0151367 36.575 0.463053 35.3875 1.50819 34.3484L39.7752 1.1875C40.8203 0.148438 42.0148 0 43.0599 0C44.1051 0 45.2995 0.296875 46.1953 1.03906L84.328 34.3633C85.5224 35.4023 86.1197 36.5898 85.9703 37.9258Z" fill="white"/>
</svg>
