<svg width="97" height="97" viewBox="0 0 97 97" fill="none" xmlns="http://www.w3.org/2000/svg">
<path d="M71.5943 20.0631L94.8592 43.3279C96.2232 44.692 97 46.5676 97 48.5C97 50.4324 96.2232 52.308 94.8592 53.6721L71.5943 76.9369C70.3818 78.1494 68.7525 78.8125 67.0475 78.8125C63.5047 78.8125 60.625 75.9328 60.625 72.39V60.625H36.375C33.0217 60.625 30.3125 57.9158 30.3125 54.5625V42.4375C30.3125 39.0842 33.0217 36.375 36.375 36.375H60.625V24.61C60.625 21.0672 63.5047 18.1875 67.0475 18.1875C68.7525 18.1875 70.3818 18.8695 71.5943 20.0631ZM30.3125 18.1875H18.1875C14.8342 18.1875 12.125 20.8967 12.125 24.25V72.75C12.125 76.1033 14.8342 78.8125 18.1875 78.8125H30.3125C33.6658 78.8125 36.375 81.5217 36.375 84.875C36.375 88.2283 33.6658 90.9375 30.3125 90.9375H18.1875C8.14648 90.9375 0 82.791 0 72.75V24.25C0 14.209 8.14648 6.0625 18.1875 6.0625H30.3125C33.6658 6.0625 36.375 8.77168 36.375 12.125C36.375 15.4783 33.6658 18.1875 30.3125 18.1875Z" fill="white"/>
</svg>
