<svg width="24" height="24" viewBox="0 0 24 24" fill="none" xmlns="http://www.w3.org/2000/svg">
<rect width="24" height="24" rx="3" fill="#F39C12"/>
<path d="M18.0197 5.62304L18.377 5.98027C18.6545 6.25779 18.6545 6.70654 18.377 6.98111L17.5178 7.84318L16.1568 6.48216L17.0159 5.62304C17.2935 5.34552 17.7422 5.34552 18.0168 5.62304H18.0197ZM11.194 11.448L15.156 7.483L16.517 8.84402L12.552 12.806C12.4664 12.8917 12.3601 12.9536 12.245 12.9861L10.5179 13.4792L11.0109 11.7521C11.0434 11.6369 11.1054 11.5306 11.191 11.445L11.194 11.448ZM16.0151 4.6222L10.1902 10.4442C9.93333 10.701 9.74733 11.0169 9.6499 11.3623L8.80554 14.3147C8.73468 14.5627 8.80259 14.8284 8.98563 15.0114C9.16868 15.1945 9.43438 15.2624 9.68238 15.1915L12.6347 14.3471C12.9831 14.2468 13.299 14.0608 13.5529 13.8069L19.3778 7.98489C20.2074 7.15529 20.2074 5.80903 19.3778 4.97943L19.0206 4.6222C18.191 3.7926 16.8447 3.7926 16.0151 4.6222ZM7.59804 5.77361C6.16321 5.77361 5 6.93682 5 8.37165V16.402C5 17.8368 6.16321 19 7.59804 19H15.6284C17.0632 19 18.2264 17.8368 18.2264 16.402V13.0954C18.2264 12.7027 17.9105 12.3868 17.5178 12.3868C17.1252 12.3868 16.8093 12.7027 16.8093 13.0954V16.402C16.8093 17.0544 16.2808 17.5829 15.6284 17.5829H7.59804C6.94558 17.5829 6.41711 17.0544 6.41711 16.402V8.37165C6.41711 7.71918 6.94558 7.19072 7.59804 7.19072H10.9046C11.2973 7.19072 11.6132 6.87482 11.6132 6.48216C11.6132 6.0895 11.2973 5.77361 10.9046 5.77361H7.59804Z" fill="white"/>
</svg>
