<svg width="24" height="24" viewBox="0 0 24 24" fill="none" xmlns="http://www.w3.org/2000/svg">
<rect width="24" height="24" rx="3" fill="#DD4B39"/>
<path d="M9.52679 4.51855L9.28571 4.9375H6.07143C5.47879 4.9375 5 5.35645 5 5.875C5 6.39355 5.47879 6.8125 6.07143 6.8125H18.9286C19.5212 6.8125 20 6.39355 20 5.875C20 5.35645 19.5212 4.9375 18.9286 4.9375H15.7143L15.4732 4.51855C15.2924 4.19922 14.9208 4 14.5156 4H10.4844C10.0792 4 9.70759 4.19922 9.52679 4.51855ZM18.9286 7.75H6.07143L6.78125 17.6816C6.83482 18.4229 7.53795 19 8.38504 19H16.615C17.4621 19 18.1652 18.4229 18.2187 17.6816L18.9286 7.75Z" fill="white"/>
</svg>
