<svg width="16" height="19" viewBox="0 0 16 19" fill="none" xmlns="http://www.w3.org/2000/svg">
<path d="M8 9.16201C9.21242 9.16201 10.3752 8.67937 11.2325 7.82027C12.0898 6.96116 12.5714 5.79596 12.5714 4.58101C12.5714 3.36605 12.0898 2.20085 11.2325 1.34175C10.3752 0.48264 9.21242 0 8 0C6.78758 0 5.62482 0.48264 4.76751 1.34175C3.9102 2.20085 3.42857 3.36605 3.42857 4.58101C3.42857 5.79596 3.9102 6.96116 4.76751 7.82027C5.62482 8.67937 6.78758 9.16201 8 9.16201ZM6.36786 10.8799C2.85 10.8799 0 13.7359 0 17.2611C0 17.848 0.475 18.324 1.06071 18.324H14.9393C15.525 18.324 16 17.848 16 17.2611C16 13.7359 13.15 10.8799 9.63214 10.8799H6.36786Z" fill="#777777"/>
</svg>
